<svg width="387" height="117" viewBox="0 0 387 117" fill="none" xmlns="http://www.w3.org/2000/svg">
<path d="M13.336 55V41.272L15.112 45.976L0.328 21.4H8.584L19.912 40.264H15.16L26.536 21.4H34.168L19.384 45.976L21.112 41.272V55H13.336ZM44.8821 55.384C42.1301 55.384 39.6821 54.808 37.5381 53.656C35.4261 52.504 33.7461 50.936 32.4981 48.952C31.2821 46.936 30.6741 44.648 30.6741 42.088C30.6741 39.496 31.2821 37.208 32.4981 35.224C33.7461 33.208 35.4261 31.64 37.5381 30.52C39.6821 29.368 42.1301 28.792 44.8821 28.792C47.6021 28.792 50.0341 29.368 52.1781 30.52C54.3221 31.64 56.0021 33.192 57.2181 35.176C58.4341 37.16 59.0421 39.464 59.0421 42.088C59.0421 44.648 58.4341 46.936 57.2181 48.952C56.0021 50.936 54.3221 52.504 52.1781 53.656C50.0341 54.808 47.6021 55.384 44.8821 55.384ZM44.8821 49.24C46.1301 49.24 47.2501 48.952 48.2421 48.376C49.2341 47.8 50.0181 46.984 50.5941 45.928C51.1701 44.84 51.4581 43.56 51.4581 42.088C51.4581 40.584 51.1701 39.304 50.5941 38.248C50.0181 37.192 49.2341 36.376 48.2421 35.8C47.2501 35.224 46.1301 34.936 44.8821 34.936C43.6341 34.936 42.5141 35.224 41.5221 35.8C40.5301 36.376 39.7301 37.192 39.1221 38.248C38.5461 39.304 38.2581 40.584 38.2581 42.088C38.2581 43.56 38.5461 44.84 39.1221 45.928C39.7301 46.984 40.5301 47.8 41.5221 48.376C42.5141 48.952 43.6341 49.24 44.8821 49.24ZM73.5033 55.384C71.3592 55.384 69.4392 54.968 67.7432 54.136C66.0792 53.304 64.7832 52.04 63.8552 50.344C62.9272 48.616 62.4632 46.424 62.4632 43.768V29.176H69.9512V42.664C69.9512 44.808 70.3992 46.392 71.2952 47.416C72.2232 48.408 73.5192 48.904 75.1832 48.904C76.3352 48.904 77.3592 48.664 78.2553 48.184C79.1513 47.672 79.8553 46.904 80.3673 45.88C80.8793 44.824 81.1353 43.512 81.1353 41.944V29.176H88.6233V55H81.5192V47.896L82.8153 49.96C81.9513 51.752 80.6712 53.112 78.9752 54.04C77.3113 54.936 75.4873 55.384 73.5033 55.384ZM104.68 55.384C101.64 55.384 99.2724 54.616 97.5764 53.08C95.8804 51.512 95.0324 49.192 95.0324 46.12V23.464H102.52V46.024C102.52 47.112 102.808 47.96 103.384 48.568C103.96 49.144 104.744 49.432 105.736 49.432C106.92 49.432 107.928 49.112 108.76 48.472L110.776 53.752C110.008 54.296 109.08 54.712 107.992 55C106.936 55.256 105.832 55.384 104.68 55.384ZM91.0484 35.512V29.752H108.952V35.512H91.0484ZM129.236 28.792C131.284 28.792 133.108 29.208 134.708 30.04C136.34 30.84 137.62 32.088 138.548 33.784C139.476 35.448 139.94 37.592 139.94 40.216V55H132.452V41.368C132.452 39.288 131.988 37.752 131.06 36.76C130.164 35.768 128.884 35.272 127.22 35.272C126.036 35.272 124.964 35.528 124.004 36.04C123.076 36.52 122.34 37.272 121.796 38.296C121.284 39.32 121.028 40.632 121.028 42.232V55H113.54V19.384H121.028V36.328L119.348 34.168C120.276 32.44 121.604 31.112 123.332 30.184C125.06 29.256 127.028 28.792 129.236 28.792ZM145.815 55V21.4H160.359C163.367 21.4 165.959 21.896 168.135 22.888C170.311 23.848 171.991 25.24 173.175 27.064C174.359 28.888 174.951 31.064 174.951 33.592C174.951 36.088 174.359 38.248 173.175 40.072C171.991 41.896 170.311 43.304 168.135 44.296C165.959 45.256 163.367 45.736 160.359 45.736H150.135L153.591 42.232V55H145.815ZM153.591 43.096L150.135 39.4H159.927C162.327 39.4 164.119 38.888 165.303 37.864C166.487 36.84 167.079 35.416 167.079 33.592C167.079 31.736 166.487 30.296 165.303 29.272C164.119 28.248 162.327 27.736 159.927 27.736H150.135L153.591 24.04V43.096ZM178.488 55V29.176H185.64V36.472L184.632 34.36C185.4 32.536 186.632 31.16 188.328 30.232C190.024 29.272 192.088 28.792 194.52 28.792V35.704C194.2 35.672 193.912 35.656 193.656 35.656C193.4 35.624 193.128 35.608 192.84 35.608C190.792 35.608 189.128 36.2 187.848 37.384C186.6 38.536 185.976 40.344 185.976 42.808V55H178.488ZM209.633 55.384C206.881 55.384 204.433 54.808 202.289 53.656C200.177 52.504 198.497 50.936 197.249 48.952C196.033 46.936 195.425 44.648 195.425 42.088C195.425 39.496 196.033 37.208 197.249 35.224C198.497 33.208 200.177 31.64 202.289 30.52C204.433 29.368 206.881 28.792 209.633 28.792C212.353 28.792 214.785 29.368 216.929 30.52C219.073 31.64 220.753 33.192 221.969 35.176C223.185 37.16 223.793 39.464 223.793 42.088C223.793 44.648 223.185 46.936 221.969 48.952C220.753 50.936 219.073 52.504 216.929 53.656C214.785 54.808 212.353 55.384 209.633 55.384ZM209.633 49.24C210.881 49.24 212.001 48.952 212.993 48.376C213.985 47.8 214.769 46.984 215.345 45.928C215.921 44.84 216.209 43.56 216.209 42.088C216.209 40.584 215.921 39.304 215.345 38.248C214.769 37.192 213.985 36.376 212.993 35.8C212.001 35.224 210.881 34.936 209.633 34.936C208.385 34.936 207.265 35.224 206.273 35.8C205.281 36.376 204.481 37.192 203.873 38.248C203.297 39.304 203.009 40.584 203.009 42.088C203.009 43.56 203.297 44.84 203.873 45.928C204.481 46.984 205.281 47.8 206.273 48.376C207.265 48.952 208.385 49.24 209.633 49.24ZM239.502 64.696C237.07 64.696 234.718 64.392 232.446 63.784C230.206 63.208 228.334 62.328 226.83 61.144L229.806 55.768C230.894 56.664 232.27 57.368 233.934 57.88C235.63 58.424 237.294 58.696 238.926 58.696C241.582 58.696 243.502 58.104 244.686 56.92C245.902 55.736 246.51 53.976 246.51 51.64V47.752L246.99 41.272L246.894 34.744V29.176H253.998V50.68C253.998 55.48 252.75 59.016 250.254 61.288C247.758 63.56 244.174 64.696 239.502 64.696ZM238.35 53.752C235.95 53.752 233.774 53.24 231.822 52.216C229.902 51.16 228.35 49.704 227.166 47.848C226.014 45.96 225.438 43.768 225.438 41.272C225.438 38.744 226.014 36.552 227.166 34.696C228.35 32.808 229.902 31.352 231.822 30.328C233.774 29.304 235.95 28.792 238.35 28.792C240.526 28.792 242.446 29.24 244.11 30.136C245.774 31 247.07 32.36 247.998 34.216C248.926 36.04 249.39 38.392 249.39 41.272C249.39 44.12 248.926 46.472 247.998 48.328C247.07 50.152 245.774 51.512 244.11 52.408C242.446 53.304 240.526 53.752 238.35 53.752ZM239.838 47.608C241.15 47.608 242.318 47.352 243.342 46.84C244.366 46.296 245.166 45.544 245.742 44.584C246.318 43.624 246.606 42.52 246.606 41.272C246.606 39.992 246.318 38.888 245.742 37.96C245.166 37 244.366 36.264 243.342 35.752C242.318 35.208 241.15 34.936 239.838 34.936C238.526 34.936 237.358 35.208 236.334 35.752C235.31 36.264 234.494 37 233.886 37.96C233.31 38.888 233.022 39.992 233.022 41.272C233.022 42.52 233.31 43.624 233.886 44.584C234.494 45.544 235.31 46.296 236.334 46.84C237.358 47.352 238.526 47.608 239.838 47.608ZM259.527 55V29.176H266.679V36.472L265.671 34.36C266.439 32.536 267.671 31.16 269.367 30.232C271.063 29.272 273.127 28.792 275.559 28.792V35.704C275.239 35.672 274.951 35.656 274.695 35.656C274.439 35.624 274.167 35.608 273.879 35.608C271.831 35.608 270.167 36.2 268.887 37.384C267.639 38.536 267.015 40.344 267.015 42.808V55H259.527ZM291.2 55.384C288.256 55.384 285.664 54.808 283.424 53.656C281.216 52.504 279.504 50.936 278.288 48.952C277.072 46.936 276.464 44.648 276.464 42.088C276.464 39.496 277.056 37.208 278.24 35.224C279.456 33.208 281.104 31.64 283.184 30.52C285.264 29.368 287.616 28.792 290.24 28.792C292.768 28.792 295.04 29.336 297.056 30.424C299.104 31.48 300.72 33.016 301.904 35.032C303.088 37.016 303.68 39.4 303.68 42.184C303.68 42.472 303.664 42.808 303.632 43.192C303.6 43.544 303.568 43.88 303.536 44.2H282.56V39.832H299.6L296.72 41.128C296.72 39.784 296.448 38.616 295.904 37.624C295.36 36.632 294.608 35.864 293.648 35.32C292.688 34.744 291.568 34.456 290.288 34.456C289.008 34.456 287.872 34.744 286.88 35.32C285.92 35.864 285.168 36.648 284.624 37.672C284.08 38.664 283.808 39.848 283.808 41.224V42.376C283.808 43.784 284.112 45.032 284.72 46.12C285.36 47.176 286.24 47.992 287.36 48.568C288.512 49.112 289.856 49.384 291.392 49.384C292.768 49.384 293.968 49.176 294.992 48.76C296.048 48.344 297.008 47.72 297.872 46.888L301.856 51.208C300.672 52.552 299.184 53.592 297.392 54.328C295.6 55.032 293.536 55.384 291.2 55.384ZM315.913 55.384C313.705 55.384 311.577 55.128 309.529 54.616C307.513 54.072 305.913 53.4 304.729 52.6L307.225 47.224C308.409 47.96 309.801 48.568 311.401 49.048C313.033 49.496 314.633 49.72 316.201 49.72C317.929 49.72 319.145 49.512 319.849 49.096C320.585 48.68 320.953 48.104 320.953 47.368C320.953 46.76 320.665 46.312 320.089 46.024C319.545 45.704 318.809 45.464 317.881 45.304C316.953 45.144 315.929 44.984 314.809 44.824C313.721 44.664 312.617 44.456 311.497 44.2C310.377 43.912 309.353 43.496 308.425 42.952C307.497 42.408 306.745 41.672 306.169 40.744C305.625 39.816 305.353 38.616 305.353 37.144C305.353 35.512 305.817 34.072 306.745 32.824C307.705 31.576 309.081 30.6 310.873 29.896C312.665 29.16 314.809 28.792 317.305 28.792C319.065 28.792 320.857 28.984 322.681 29.368C324.505 29.752 326.025 30.312 327.241 31.048L324.745 36.376C323.497 35.64 322.233 35.144 320.953 34.888C319.705 34.6 318.489 34.456 317.305 34.456C315.641 34.456 314.425 34.68 313.657 35.128C312.889 35.576 312.505 36.152 312.505 36.856C312.505 37.496 312.777 37.976 313.321 38.296C313.897 38.616 314.649 38.872 315.577 39.064C316.505 39.256 317.513 39.432 318.601 39.592C319.721 39.72 320.841 39.928 321.961 40.216C323.081 40.504 324.089 40.92 324.985 41.464C325.913 41.976 326.665 42.696 327.241 43.624C327.817 44.52 328.105 45.704 328.105 47.176C328.105 48.776 327.625 50.2 326.665 51.448C325.705 52.664 324.313 53.624 322.489 54.328C320.697 55.032 318.505 55.384 315.913 55.384ZM339.973 55.384C337.765 55.384 335.637 55.128 333.589 54.616C331.573 54.072 329.973 53.4 328.789 52.6L331.285 47.224C332.469 47.96 333.861 48.568 335.461 49.048C337.093 49.496 338.693 49.72 340.261 49.72C341.989 49.72 343.205 49.512 343.909 49.096C344.645 48.68 345.013 48.104 345.013 47.368C345.013 46.76 344.725 46.312 344.149 46.024C343.605 45.704 342.869 45.464 341.941 45.304C341.013 45.144 339.989 44.984 338.869 44.824C337.781 44.664 336.677 44.456 335.557 44.2C334.437 43.912 333.413 43.496 332.485 42.952C331.557 42.408 330.805 41.672 330.229 40.744C329.685 39.816 329.413 38.616 329.413 37.144C329.413 35.512 329.877 34.072 330.805 32.824C331.765 31.576 333.141 30.6 334.933 29.896C336.725 29.16 338.869 28.792 341.365 28.792C343.125 28.792 344.917 28.984 346.741 29.368C348.565 29.752 350.085 30.312 351.301 31.048L348.805 36.376C347.557 35.64 346.293 35.144 345.013 34.888C343.765 34.6 342.549 34.456 341.365 34.456C339.701 34.456 338.485 34.68 337.717 35.128C336.949 35.576 336.565 36.152 336.565 36.856C336.565 37.496 336.837 37.976 337.381 38.296C337.957 38.616 338.709 38.872 339.637 39.064C340.565 39.256 341.573 39.432 342.661 39.592C343.781 39.72 344.901 39.928 346.021 40.216C347.141 40.504 348.149 40.92 349.045 41.464C349.973 41.976 350.725 42.696 351.301 43.624C351.877 44.52 352.165 45.704 352.165 47.176C352.165 48.776 351.685 50.2 350.725 51.448C349.765 52.664 348.373 53.624 346.549 54.328C344.757 55.032 342.565 55.384 339.973 55.384ZM363.169 49.288V27.112H369.361V49.288H363.169ZM354.865 41.128V35.272H377.713V41.128H354.865Z" fill="white"/>
<path d="M162.16 83.256H164.152V99H162.16V83.256ZM171.009 84.936H166.257V83.256H177.777V84.936H173.025V99H171.009V84.936ZM179.892 83.256H188.964V84.936H181.884V89.88H187.86V91.584H181.884V97.296H189.204V99H179.892V83.256ZM191.828 83.256H194.228L197.252 91.656C197.444 92.2 197.628 92.752 197.804 93.312C197.996 93.856 198.188 94.4 198.38 94.944H198.476C198.668 94.4 198.844 93.856 199.004 93.312C199.18 92.752 199.364 92.2 199.556 91.656L202.532 83.256H204.956V99H203.084V90.336C203.084 89.632 203.116 88.856 203.18 88.008C203.244 87.16 203.3 86.384 203.348 85.68H203.252L202.004 89.256L199.028 97.416H197.708L194.732 89.256L193.484 85.68H193.388C193.436 86.384 193.484 87.16 193.532 88.008C193.596 88.856 193.628 89.632 193.628 90.336V99H191.828V83.256ZM208.546 83.256H210.946L213.97 91.656C214.162 92.2 214.346 92.752 214.522 93.312C214.714 93.856 214.906 94.4 215.098 94.944H215.194C215.386 94.4 215.562 93.856 215.722 93.312C215.898 92.752 216.082 92.2 216.274 91.656L219.25 83.256H221.674V99H219.802V90.336C219.802 89.632 219.834 88.856 219.898 88.008C219.962 87.16 220.018 86.384 220.066 85.68H219.97L218.722 89.256L215.746 97.416H214.426L211.45 89.256L210.202 85.68H210.106C210.154 86.384 210.202 87.16 210.25 88.008C210.314 88.856 210.346 89.632 210.346 90.336V99H208.546V83.256Z" fill="white"/>
</svg>
